<?xml version="1.0" encoding="iso-8859-1"?>
<!-- Generator: Adobe Illustrator 19.0.0, SVG Export Plug-In . SVG Version: 6.00 Build 0)  -->
<svg version="1.1" id="Layer_1" xmlns="http://www.w3.org/2000/svg" xmlns:xlink="http://www.w3.org/1999/xlink" x="0px" y="0px"
	 viewBox="0 0 512 512" style="enable-background:new 0 0 512 512;" xml:space="preserve">
<path style="fill:#D8D8D8;" d="M256,264.828c-12.359,0-23.834-1.766-34.428-4.414l16.772,233.931
	C239.228,504.055,246.29,512,256,512c9.71,0,16.772-7.945,17.655-17.655l16.772-233.931
	C279.835,263.945,268.359,264.828,256,264.828"/>
<path style="fill:#ED8B1B;" d="M388.414,132.414C388.414,59.145,329.269,0,256,0S123.586,59.145,123.586,132.414
	S182.731,264.828,256,264.828S388.414,205.683,388.414,132.414"/>
<g>
	<path style="fill:#FCFCFC;" d="M229.517,185.379c-5.297,0-8.828-3.531-8.828-8.828v-61.793c0-5.297,3.531-8.828,8.828-8.828
		s8.828,3.531,8.828,8.828v61.793C238.345,181.848,234.814,185.379,229.517,185.379z"/>
	<path style="fill:#FCFCFC;" d="M282.483,185.379c-5.297,0-8.828-3.531-8.828-8.828v-61.793c0-5.297,3.531-8.828,8.828-8.828
		s8.828,3.531,8.828,8.828v61.793C291.31,181.848,287.779,185.379,282.483,185.379z"/>
	<path style="fill:#FCFCFC;" d="M308.966,150.069c-2.648,0-4.414-0.883-6.179-2.648L256,100.634l-46.786,46.786
		c-3.531,3.531-8.828,3.531-12.359,0c-3.531-3.531-3.531-8.828,0-12.359l52.966-52.966c3.531-3.531,8.828-3.531,12.359,0
		l52.966,52.966c3.531,3.531,3.531,8.828,0,12.359C313.379,149.186,311.614,150.069,308.966,150.069z"/>
</g>
<g>
</g>
<g>
</g>
<g>
</g>
<g>
</g>
<g>
</g>
<g>
</g>
<g>
</g>
<g>
</g>
<g>
</g>
<g>
</g>
<g>
</g>
<g>
</g>
<g>
</g>
<g>
</g>
<g>
</g>
</svg>
