<?xml version="1.0" encoding="iso-8859-1"?>
<!-- Generator: Adobe Illustrator 19.0.0, SVG Export Plug-In . SVG Version: 6.00 Build 0)  -->
<svg version="1.1" id="Layer_1" xmlns="http://www.w3.org/2000/svg" xmlns:xlink="http://www.w3.org/1999/xlink" x="0px" y="0px"
	 viewBox="0 0 512 512" style="enable-background:new 0 0 512 512;" xml:space="preserve">
<path style="fill:#D8D8D8;" d="M256,264.828c-12.359,0-23.834-1.766-34.428-4.414l16.772,233.931
	C239.228,504.055,246.29,512,256,512c9.71,0,16.772-7.945,17.655-17.655l16.772-233.931
	C279.835,263.062,268.359,264.828,256,264.828"/>
<path style="fill:#ED8B1B;" d="M388.414,132.414C388.414,59.145,329.269,0,256,0S123.586,59.145,123.586,132.414
	S182.731,264.828,256,264.828S388.414,205.683,388.414,132.414"/>
<g>
	<path style="fill:#FFFFFF;" d="M262.179,132.414h-11.476c-21.186-8.828-37.959-30.897-37.959-52.966V61.793h88.276v17.655
		C300.138,101.517,283.366,123.586,262.179,132.414"/>
	<path style="fill:#FFFFFF;" d="M249.821,132.414h11.476c21.186,8.828,37.959,30.897,37.959,52.966v17.655h-87.393v-17.655
		C211.862,163.31,228.634,141.241,249.821,132.414"/>
</g>
<g>
</g>
<g>
</g>
<g>
</g>
<g>
</g>
<g>
</g>
<g>
</g>
<g>
</g>
<g>
</g>
<g>
</g>
<g>
</g>
<g>
</g>
<g>
</g>
<g>
</g>
<g>
</g>
<g>
</g>
</svg>
